# This file uses centimeters as units for non-parametric coordinates.

mtllib MainCeilingArch.mtl
g default
v -14.908612 43.301090 5.238039
v -13.703856 51.689669 5.238039
v -10.899128 58.613934 5.238039
v -6.613029 66.473856 5.238039
v -0.000000 73.311945 5.238039
v 6.613029 66.473856 5.238039
v 10.899128 58.613934 5.238039
v 13.703855 51.689669 5.238039
v 14.908612 43.301090 5.238039
v -17.951427 43.276839 5.238039
v -16.480667 51.658468 5.238039
v -13.650285 59.875371 5.238039
v -8.334696 69.033305 5.238039
v -0.000000 77.085614 5.238039
v 8.334696 69.033305 5.238039
v 13.650285 59.875371 5.238039
v 16.480667 51.658468 5.238039
v 17.951424 43.276849 5.238039
v -17.951427 43.276839 2.312502
v -16.480667 51.658468 1.837591
v -13.650285 59.875371 1.837591
v -8.357812 69.078470 1.837591
v -0.000000 77.262202 1.837591
v 8.357811 69.078470 1.837591
v 13.650285 59.875371 1.837591
v 16.480667 51.658468 1.837591
v 17.951431 43.276852 2.312502
v -14.908612 43.301090 1.837591
v -13.703856 51.689669 1.837591
v -10.899129 58.613934 1.837591
v -6.631466 66.503355 1.837591
v -0.000000 73.469797 1.837591
v 6.631465 66.503355 1.837591
v 10.899129 58.613934 1.837591
v 13.703855 51.689669 1.837591
v 14.908612 43.301090 1.837591
v -19.477205 52.537655 1.837591
v -20.949059 43.276839 2.312502
v -16.572029 61.331985 1.848643
v -11.096251 71.224512 1.894033
v -0.000000 81.242165 1.928369
v 11.096250 71.224545 1.894032
v 16.572029 61.331985 1.848643
v 19.477205 52.537659 1.837593
v 20.949062 43.276852 2.312507
v -17.951427 43.276839 9.929088
v -16.477648 51.655902 9.929084
v -19.474319 52.535082 9.929084
v -20.949059 43.276839 9.929088
v -13.630106 59.857204 9.928969
v -16.552748 61.313825 9.940022
v -8.283700 68.976573 9.928368
v -11.025435 71.122614 9.984810
v 0.000000 77.003350 9.927877
v 0.000000 80.983334 10.018657
v 8.283701 68.976573 9.928368
v 11.025436 71.122614 9.984809
v 13.630105 59.857204 9.928969
v 16.552748 61.313825 9.940022
v 16.477644 51.655902 9.929085
v 19.474316 52.535092 9.929087
v 17.951420 43.276849 9.929089
v 20.949053 43.276849 9.929092
v -26.206257 44.112853 5.238962
v -24.649567 53.796107 5.242423
v -24.633137 53.790317 1.837591
v -26.206329 44.112391 2.312502
v -21.444489 63.475691 5.274798
v -21.425642 63.459963 1.864787
v -15.230970 74.503810 5.371648
v -15.200159 74.497431 1.980504
v -0.000002 86.386821 5.475620
v -0.000002 85.201684 2.069030
v 15.230971 74.503797 5.371654
v 15.200158 74.497464 1.980512
v 21.444489 63.475691 5.274800
v 21.425644 63.459963 1.864791
v 24.649567 53.796107 5.242428
v 24.633137 53.790320 1.837597
v 26.206253 44.112857 5.238972
v 26.206333 44.112408 2.312515
v -26.206184 44.113312 9.930936
v -24.629248 53.790980 9.937829
v -21.400438 63.453383 9.975064
v -15.120084 74.408976 10.050647
v 0.000000 84.952234 10.095890
v 15.120085 74.408976 10.050649
v 21.400438 63.453383 9.975063
v 24.629244 53.790984 9.937831
v 26.206179 44.113312 9.930941
v -20.787960 43.186799 165.286377
v -19.117617 52.167906 165.285400
v -24.272545 53.423811 165.294128
v -26.045086 44.023269 165.288223
v -15.768296 60.192154 165.291290
v -20.615988 62.331715 165.326324
v -9.761341 69.013302 165.324112
v -13.855989 72.299663 165.389954
v -0.000009 78.363703 165.350067
v -0.000009 82.332623 165.427307
v 9.761340 69.013255 165.324112
v 13.855989 72.299616 165.389954
v 15.768307 60.192167 165.291290
v 20.615997 62.331729 165.326324
v 19.117615 52.167973 165.285400
v 24.272543 53.423865 165.294144
v 20.787954 43.186852 165.286377
v 26.045080 44.023316 165.288223
v 14.820765 32.273953 1.837591
v 14.820765 32.273953 5.238039
v 17.907507 32.249544 2.312493
v 17.907499 32.249534 5.238034
v 21.814753 32.317748 2.312930
v 21.817678 32.283626 5.238388
v 21.815451 32.317855 9.927097
v 17.951420 32.249366 9.929079
v 27.937714 33.221692 2.313379
v 27.938105 33.222215 5.239674
v 27.938738 33.222778 9.929220
v 27.777876 33.132821 165.284256
v 22.520750 32.296354 165.282410
v -14.820731 32.273956 5.238039
v -17.907486 32.249534 5.238039
v -17.907486 32.249534 2.312502
v -14.820731 32.273956 1.837591
v -21.817686 32.283619 5.238395
v -21.814749 32.317741 2.312940
v -17.951427 32.249359 9.929088
v -21.815464 32.317855 9.927096
v -27.938114 33.222215 5.239673
v -27.937710 33.221675 2.313377
v -27.938757 33.222784 9.929217
v -22.520771 32.296311 165.282379
v -27.777897 33.132781 165.284225
vt 0.976835 0.082891
vt 0.977853 0.142606
vt 0.015284 0.158012
vt 0.014289 0.099825
vt 0.978764 0.201541
vt 0.016147 0.213399
vt 0.979606 0.273262
vt 0.016942 0.281383
vt 0.980426 0.367491
vt 0.017763 0.367491
vt 0.979606 0.461719
vt 0.016943 0.453600
vt 0.978764 0.533441
vt 0.016147 0.521584
vt 0.977844 0.592375
vt 0.015275 0.576970
vt 0.976825 0.652090
vt 0.014279 0.635157
vt 0.975653 0.722113
vt 0.013107 0.705399
vt 0.011869 0.028525
vt 0.975648 0.012869
vt 0.231514 0.809744
vt 0.242549 0.807032
vt 0.244475 0.813345
vt 0.232926 0.816214
vt 0.252277 0.802303
vt 0.255279 0.808172
vt 0.262807 0.794217
vt 0.267179 0.799069
vt 0.273727 0.781430
vt 0.278657 0.781149
vt 0.261424 0.769967
vt 0.265217 0.764649
vt 0.250044 0.763130
vt 0.252359 0.756958
vt 0.239841 0.759537
vt 0.241037 0.753046
vt 0.228569 0.758098
vt 0.229236 0.751509
vt 0.030739 0.860491
vt 0.029097 0.852968
vt 0.218111 0.812669
vt 0.219523 0.819139
vt 0.022551 0.738162
vt 0.023327 0.730501
vt 0.215588 0.750127
vt 0.214921 0.756715
vt 0.483255 0.802055
vt 0.595291 0.802055
vt 0.595291 0.848555
vt 0.483255 0.848555
vt 0.709981 0.802055
vt 0.709981 0.848555
vt 0.847605 0.802055
vt 0.847605 0.848555
vt 0.990545 0.802055
vt 0.990545 0.848555
vt 0.847605 0.802055
vt 0.847605 0.848555
vt 0.709981 0.802055
vt 0.709981 0.848555
vt 0.595291 0.802055
vt 0.595291 0.848555
vt 0.483255 0.802055
vt 0.483255 0.848555
vt 0.483255 0.738823
vt 0.595291 0.738823
vt 0.709981 0.738823
vt 0.847605 0.738823
vt 0.990545 0.738823
vt 0.847605 0.738823
vt 0.709981 0.738823
vt 0.595291 0.738823
vt 0.483255 0.738823
vt 0.314410 0.802055
vt 0.314410 0.848555
vt 0.314410 0.738823
vt 0.314410 0.802055
vt 0.314410 0.738823
vt 0.314410 0.848555
vt 0.483255 0.802055
vt 0.595291 0.802055
vt 0.595291 0.848556
vt 0.483255 0.848556
vt 0.709981 0.802055
vt 0.709981 0.848556
vt 0.847605 0.802055
vt 0.847605 0.848556
vt 0.990545 0.802055
vt 0.990545 0.848555
vt 0.847605 0.802055
vt 0.847605 0.848555
vt 0.709981 0.802055
vt 0.709981 0.848555
vt 0.595291 0.802055
vt 0.595291 0.848555
vt 0.483255 0.802055
vt 0.483255 0.848555
vt 0.483255 0.738823
vt 0.595291 0.738823
vt 0.709981 0.738823
vt 0.847605 0.738823
vt 0.990545 0.738823
vt 0.847605 0.738823
vt 0.709981 0.738823
vt 0.595291 0.738823
vt 0.483255 0.738823
vt 0.314410 0.738823
vt 0.314410 0.802055
vt 0.314410 0.848555
vt 0.314410 0.848556
vt 0.314410 0.802055
vt 0.314410 0.738823
vt 0.246068 0.964252
vt 0.221263 0.959447
vt 0.221292 0.951216
vt 0.246128 0.955128
vt 0.197040 0.950670
vt 0.200909 0.942577
vt 0.170019 0.934548
vt 0.177732 0.929554
vt 0.146165 0.909391
vt 0.157403 0.909570
vt 0.170806 0.885004
vt 0.178357 0.890240
vt 0.198326 0.869748
vt 0.201935 0.877960
vt 0.222816 0.861744
vt 0.222585 0.869973
vt 0.247760 0.857730
vt 0.247528 0.866851
vt 0.290276 0.866639
vt 0.280297 0.867625
vt 0.280637 0.858361
vt 0.289426 0.857593
vt 0.288838 0.956678
vt 0.287725 0.965693
vt 0.278956 0.964672
vt 0.278899 0.955400
vt 0.245889 0.973118
vt 0.218508 0.968288
vt 0.286561 0.977231
vt 0.278092 0.976201
vt 0.192585 0.959260
vt 0.163528 0.942562
vt 0.134368 0.909204
vt 0.164572 0.876788
vt 0.194145 0.861022
vt 0.220341 0.852820
vt 0.280150 0.846784
vt 0.288635 0.846067
vt 0.247862 0.848861
vt 0.301616 0.967476
vt 0.300307 0.978917
vt 0.302427 0.844831
vt 0.303359 0.856292
vt 0.243187 0.988666
vt 0.214546 0.983508
vt 0.284139 0.995429
vt 0.275471 0.994311
vt 0.186047 0.973542
vt 0.153631 0.954570
vt 0.122626 0.909017
vt 0.155062 0.864472
vt 0.188063 0.846539
vt 0.216865 0.837482
vt 0.278104 0.828621
vt 0.286832 0.827760
vt 0.245656 0.833235
vt 0.297944 0.997169
vt 0.300698 0.826508
vt 0.928967 0.649682
vt 0.929912 0.591525
vt 0.977844 0.592375
vt 0.976825 0.652090
vt 0.930699 0.533194
vt 0.978764 0.533441
vt 0.931224 0.460870
vt 0.979605 0.461719
vt 0.931713 0.368362
vt 0.980426 0.367491
vt 0.931227 0.273800
vt 0.979605 0.273262
vt 0.930724 0.201694
vt 0.978764 0.201541
vt 0.929948 0.143733
vt 0.977853 0.142606
vt 0.929007 0.083724
vt 0.976835 0.082891
vt 0.902110 0.649231
vt 0.903034 0.591095
vt 0.903789 0.532800
vt 0.904439 0.460537
vt 0.904575 0.368362
vt 0.904442 0.274135
vt 0.903814 0.202078
vt 0.903070 0.144159
vt 0.902151 0.083955
vt 0.014279 0.635157
vt 0.015275 0.576970
vt 0.016147 0.521584
vt 0.016943 0.453600
vt 0.017763 0.367491
vt 0.016942 0.281383
vt 0.016147 0.213399
vt 0.015284 0.158012
vt 0.014289 0.099825
vt 0.927352 0.013709
vt 0.975648 0.012869
vt 0.901071 0.014161
vt 0.011869 0.028525
vt 0.975653 0.722113
vt 0.927873 0.721310
vt 0.901027 0.720855
vt 0.013107 0.705399
vt 0.990545 0.848556
vt 0.990545 0.738823
vt 0.990545 0.738823
vt 0.990545 0.802055
vt 0.990545 0.802055
vt 0.990545 0.848555
vn -0.000000 0.000000 1.000000
vn 0.000000 0.000000 1.000000
vn 0.000000 0.000000 1.000000
vn -0.000000 0.000000 1.000000
vn -0.000000 0.000000 1.000000
vn -0.000000 0.000000 1.000000
vn -0.000000 0.000000 1.000000
vn -0.000000 0.000000 1.000000
vn -0.000000 0.000000 1.000000
vn -0.000000 0.000000 1.000000
vn 0.000000 0.000000 1.000000
vn -0.000000 0.000000 1.000000
vn -0.000000 0.000000 1.000000
vn 0.000000 0.000000 1.000000
vn 0.000000 0.000000 1.000000
vn 0.000000 0.000000 1.000000
vn 0.000000 0.000000 1.000000
vn -0.000000 0.000000 1.000000
vn 0.000000 -0.000000 1.000000
vn 0.000000 -0.000000 1.000000
vn -0.987389 0.158310 0.000072
vn -0.970547 0.240911 0.001053
vn -0.969982 0.243137 -0.004431
vn -0.987395 0.158267 -0.001387
vn -0.909587 0.415477 0.005538
vn -0.910351 0.413776 -0.007069
vn -0.720711 0.693067 0.015308
vn -0.718363 0.689741 -0.090620
vn -0.594872 0.803537 0.021373
vn -0.589381 0.795266 -0.142066
vn 0.594871 0.803537 0.021374
vn 0.720711 0.693067 0.015309
vn 0.718362 0.689743 -0.090616
vn 0.589381 0.795266 -0.142062
vn 0.909587 0.415477 0.005539
vn 0.910351 0.413776 -0.007066
vn 0.970547 0.240911 0.001053
vn 0.969982 0.243137 -0.004430
vn 0.987390 0.158310 0.000074
vn 0.987395 0.158267 -0.001384
vn -0.058698 -0.015583 -0.998154
vn -0.023879 -0.018967 -0.999535
vn -0.036179 -0.006805 -0.999322
vn -0.121764 -0.007194 -0.992533
vn -0.002734 0.002358 -0.999994
vn -0.000000 0.000000 -1.000000
vn -0.006784 0.007365 -0.999950
vn -0.000000 0.000000 -1.000000
vn -0.000000 0.014364 -0.999897
vn 0.000000 0.000000 -1.000000
vn 0.006783 0.007365 -0.999950
vn 0.000000 0.000000 -1.000000
vn 0.000000 0.000000 -1.000000
vn 0.002734 0.002358 -0.999994
vn 0.000000 0.000000 -1.000000
vn 0.023880 -0.018967 -0.999535
vn 0.036179 -0.006805 -0.999322
vn 0.058698 -0.015583 -0.998154
vn 0.121764 -0.007193 -0.992533
vn 0.998350 -0.057429 0.000000
vn 0.967388 -0.253299 -0.000000
vn 0.967388 -0.253299 -0.000000
vn 0.998350 -0.057429 0.000000
vn 0.902040 -0.431645 -0.002432
vn 0.902040 -0.431645 -0.002432
vn 0.804432 -0.593899 -0.013155
vn 0.804972 -0.593168 -0.013098
vn 0.721433 -0.692165 -0.021024
vn 0.721433 -0.692165 -0.021024
vn -0.721433 -0.692165 -0.021024
vn -0.804432 -0.593899 -0.013154
vn -0.804972 -0.593168 -0.013098
vn -0.721433 -0.692165 -0.021024
vn -0.902040 -0.431645 -0.002431
vn -0.902040 -0.431645 -0.002431
vn -0.967388 -0.253299 0.000000
vn -0.967388 -0.253299 0.000000
vn -0.998349 -0.057431 0.000000
vn -0.998349 -0.057431 0.000000
vn -0.007909 -0.999969 -0.000001
vn -0.007909 -0.999969 -0.000001
vn 0.002931 -0.999991 -0.003016
vn 0.007923 -0.999969 -0.000053
vn 0.007912 -0.999969 0.000000
vn -0.007922 -0.999969 -0.000052
vn -0.002929 -0.999991 -0.003014
vn 0.007912 -0.999969 0.000000
vn -0.000163 -0.000044 1.000000
vn 0.000688 -0.000541 1.000000
vn 0.000783 -0.000616 1.000000
vn -0.000179 -0.000048 1.000000
vn -0.003738 -0.020429 -0.999784
vn -0.005032 -0.023616 -0.999708
vn -0.096645 -0.995319 0.000017
vn -0.096503 -0.995316 -0.005803
vn 0.004676 -0.004052 0.999981
vn 0.005212 -0.004536 0.999976
vn -0.003800 0.005901 -0.999975
vn 0.011060 -0.012101 0.999866
vn 0.011571 -0.012905 0.999850
vn -0.010128 0.015562 -0.999828
vn 0.000000 -0.017532 0.999846
vn 0.000000 -0.017532 0.999846
vn 0.000000 0.022522 -0.999746
vn -0.011059 -0.012101 0.999866
vn -0.011571 -0.012905 0.999850
vn 0.010128 0.015563 -0.999828
vn -0.004676 -0.004052 0.999981
vn -0.005212 -0.004535 0.999976
vn 0.003800 0.005901 -0.999975
vn -0.000689 -0.000541 1.000000
vn -0.000784 -0.000616 1.000000
vn 0.005033 -0.023616 -0.999708
vn 0.000161 -0.000044 1.000000
vn 0.000177 -0.000049 1.000000
vn 0.096504 -0.995316 -0.005805
vn 0.096645 -0.995319 0.000016
vn 0.003740 -0.020428 -0.999784
vn 0.997216 -0.074520 0.002495
vn 0.967844 -0.251545 -0.001731
vn 0.967856 -0.251499 -0.001730
vn 0.997216 -0.074520 0.002495
vn -0.986404 0.164334 0.001466
vn -0.965152 0.261666 0.003576
vn -0.013195 -0.999907 0.003572
vn -0.148528 -0.988908 -0.000405
vn 0.904605 -0.426190 -0.007227
vn 0.904735 -0.425913 -0.007215
vn -0.893263 0.449451 0.008664
vn 0.782803 -0.622139 -0.012713
vn 0.783360 -0.621438 -0.012701
vn -0.702975 0.711036 0.015962
vn 0.695277 -0.718597 -0.014430
vn 0.695277 -0.718597 -0.014430
vn -0.579456 0.814779 0.019114
vn -0.695277 -0.718597 -0.014428
vn -0.782803 -0.622139 -0.012712
vn -0.783360 -0.621438 -0.012699
vn -0.695277 -0.718597 -0.014428
vn 0.579457 0.814779 0.019114
vn 0.702975 0.711036 0.015962
vn -0.904605 -0.426190 -0.007227
vn -0.904735 -0.425913 -0.007215
vn 0.893263 0.449451 0.008664
vn -0.967844 -0.251545 -0.001732
vn -0.967856 -0.251499 -0.001731
vn 0.965152 0.261665 0.003576
vn -0.997216 -0.074520 0.002493
vn -0.997216 -0.074520 0.002493
vn 0.148528 -0.988908 -0.000405
vn 0.013195 -0.999907 0.003572
vn 0.986404 0.164333 0.001466
vn -0.004486 -0.022272 -0.999742
vn -0.005090 -0.022027 -0.999744
vn -0.148862 -0.988858 0.000063
vn -0.148814 -0.988848 -0.005760
vn -0.003300 0.007100 -0.999969
vn -0.009880 0.017625 -0.999796
vn 0.000000 0.023527 -0.999723
vn 0.009881 0.017626 -0.999796
vn 0.003301 0.007100 -0.999969
vn 0.005091 -0.022027 -0.999744
vn 0.148815 -0.988848 -0.005762
vn 0.148861 -0.988858 0.000062
vn 0.004487 -0.022272 -0.999742
vn -0.151182 -0.988506 -0.000484
vn 0.000572 -0.000426 1.000000
vn 0.002021 -0.001966 0.999996
vn 0.002043 -0.001995 0.999996
vn 0.000584 -0.000426 1.000000
vn 0.004592 -0.006559 0.999968
vn 0.004629 -0.006637 0.999967
vn 0.007447 -0.011698 0.999904
vn 0.007589 -0.011921 0.999900
vn -0.000001 -0.014510 0.999895
vn -0.000001 -0.014510 0.999895
vn -0.007448 -0.011698 0.999904
vn -0.007589 -0.011921 0.999900
vn -0.004592 -0.006559 0.999968
vn -0.004629 -0.006637 0.999967
vn -0.002024 -0.001966 0.999996
vn -0.002045 -0.001996 0.999996
vn -0.000577 -0.000425 1.000000
vn -0.000588 -0.000425 1.000000
vn 0.151182 -0.988506 -0.000484
vn 0.989888 -0.141849 0.000057
vn 0.965714 -0.259586 -0.003496
vn 0.965766 -0.259393 -0.003492
vn 0.989890 -0.141835 0.000058
vn -0.986373 0.164515 0.001480
vn -0.964978 0.262306 0.003535
vn -0.151257 -0.988494 -0.000620
vn -0.151257 -0.988494 -0.000620
vn 0.893413 -0.449157 -0.008443
vn 0.893609 -0.448768 -0.008429
vn -0.892831 0.450311 0.008469
vn 0.760079 -0.649704 -0.012810
vn 0.760638 -0.649050 -0.012801
vn -0.702946 0.711115 0.013514
vn 0.678681 -0.734301 -0.013939
vn 0.678681 -0.734301 -0.013939
vn -0.578947 0.815232 0.014765
vn -0.678681 -0.734300 -0.013939
vn -0.760079 -0.649704 -0.012811
vn -0.760638 -0.649050 -0.012802
vn -0.678681 -0.734300 -0.013939
vn 0.578947 0.815231 0.014765
vn 0.702946 0.711115 0.013514
vn -0.893412 -0.449158 -0.008443
vn -0.893608 -0.448769 -0.008429
vn 0.892831 0.450312 0.008469
vn -0.965714 -0.259586 -0.003496
vn -0.965766 -0.259392 -0.003492
vn 0.964978 0.262306 0.003535
vn -0.989888 -0.141848 0.000057
vn -0.989891 -0.141834 0.000058
vn 0.151256 -0.988494 -0.000620
vn 0.151256 -0.988494 -0.000620
vn 0.986374 0.164514 0.001480
vn -0.999968 0.007966 0.000000
vn -0.999968 0.007966 0.000000
vn 0.073254 -0.000446 -0.997313
vn 0.153122 -0.000914 -0.988207
vn 0.000001 -0.000000 1.000000
vn 0.000001 -0.000000 1.000000
vn 0.000054 -0.000039 -1.000000
vn 0.000289 -0.000080 1.000000
vn 0.000289 -0.000080 1.000000
vn -0.999987 0.001992 0.004681
vn -0.999987 0.001992 0.004681
vn 0.000048 -0.000053 -1.000000
vn 0.987589 0.157060 -0.000077
vn 0.987594 0.157027 -0.000078
vn 0.987579 0.157122 0.001079
vn 0.987578 0.157123 0.001114
vn -0.000289 -0.000410 1.000000
vn -0.000289 -0.000410 1.000000
vn -0.992997 -0.118126 0.001697
vn -0.992997 -0.118126 0.001697
vn -0.000000 0.000000 1.000000
vn -0.000000 0.000000 1.000000
vn -0.153123 -0.000915 -0.988207
vn -0.073255 -0.000447 -0.997313
vn 0.999968 0.007969 0.000000
vn 0.999968 0.007969 0.000000
vn -0.000053 -0.000040 -1.000000
vn 0.999987 0.001992 0.004684
vn 0.999987 0.001992 0.004684
vn -0.000291 -0.000079 1.000000
vn -0.000291 -0.000079 1.000000
vn -0.987594 0.157027 -0.000083
vn -0.987589 0.157061 -0.000079
vn -0.000047 -0.000055 -1.000000
vn -0.987578 0.157123 0.001079
vn 0.992997 -0.118128 0.001697
vn 0.992997 -0.118128 0.001697
vn 0.000285 -0.000413 1.000000
vn 0.000285 -0.000413 1.000000
vn -0.987578 0.157125 0.001114
s 1
g pCube1
usemtl initialShadingGroup
f 1/82/1 2/83/2 11/84/3 10/85/4
f 2/83/2 3/86/5 12/87/6 11/84/3
f 3/86/5 4/88/7 13/89/8 12/87/6
f 4/88/7 5/90/9 14/217/10 13/89/8
s 2
f 5/220/11 6/92/12 15/93/13 14/91/14
f 6/92/12 7/94/15 16/95/16 15/93/13
f 7/94/15 8/96/17 17/97/18 16/95/16
f 8/96/17 9/98/19 18/99/20 17/97/18
s 3
f 64/173/21 65/174/22 66/175/23 67/176/24
f 65/174/22 68/177/25 69/178/26 66/175/23
f 68/177/25 70/179/27 71/180/28 69/178/26
f 70/179/27 72/181/29 73/182/30 71/180/28
s 4
f 72/181/31 74/183/32 75/184/33 73/182/34
f 74/183/32 76/185/35 77/186/36 75/184/33
f 76/185/35 78/187/37 79/188/38 77/186/36
f 78/187/37 80/189/39 81/190/40 79/188/38
s 5
f 19/115/41 20/116/42 29/117/43 28/118/44
f 20/116/42 21/119/45 30/120/46 29/117/43
f 21/119/45 22/121/47 31/122/48 30/120/46
f 22/121/47 23/123/49 32/124/50 31/122/48
f 23/123/49 24/125/51 33/126/52 32/124/53
f 24/125/51 25/127/54 34/128/55 33/126/52
f 25/127/54 26/129/56 35/130/57 34/128/55
f 26/129/56 27/131/58 36/132/59 35/130/57
s 7
f 28/100/60 29/101/61 2/83/62 1/82/63
f 29/101/61 30/102/64 3/86/65 2/83/62
f 30/102/64 31/103/66 4/88/67 3/86/65
f 31/103/66 32/219/68 5/90/69 4/88/67
s 8
f 32/104/70 33/105/71 6/92/72 5/220/73
f 33/105/71 34/106/74 7/94/75 6/92/72
f 34/106/74 35/107/76 8/96/77 7/94/75
f 35/107/76 36/108/78 9/98/79 8/96/77
s 9
f 110/133/80 109/134/81 111/135/82 112/136/83
s 10
f 122/137/84 123/138/85 124/139/86 125/140/87
s 11
f 46/49/88 47/50/89 48/51/90 49/52/91
s 5
f 20/116/42 19/115/41 38/141/92 37/142/93
s 10
f 124/139/86 123/138/85 126/143/94 127/144/95
s 11
f 47/50/89 50/53/96 51/54/97 48/51/90
s 5
f 21/119/45 20/116/42 37/142/93 39/145/98
s 11
f 50/53/96 52/55/99 53/56/100 51/54/97
s 5
f 22/121/47 21/119/45 39/145/98 40/146/101
s 11
f 52/55/99 54/221/102 55/222/103 53/56/100
s 5
f 23/123/49 22/121/47 40/146/101 41/147/104
s 11
f 54/57/102 56/59/105 57/60/106 55/58/103
s 5
f 24/125/51 23/123/49 41/147/104 42/148/107
s 11
f 56/59/105 58/61/108 59/62/109 57/60/106
s 5
f 25/127/54 24/125/51 42/148/107 43/149/110
s 11
f 58/61/108 60/63/111 61/64/112 59/62/109
s 5
f 26/129/56 25/127/54 43/149/110 44/150/113
s 11
f 60/63/111 62/65/114 63/66/115 61/64/112
s 9
f 112/136/83 111/135/82 113/151/116 114/152/117
s 5
f 27/131/58 26/129/56 44/150/113 45/153/118
s 12
f 10/67/119 11/68/120 47/50/121 46/49/122
s 3
f 65/174/22 64/173/21 82/191/123 83/192/124
s 10
f 126/143/94 123/138/85 128/154/125 129/155/126
s 12
f 11/68/120 12/69/127 50/53/128 47/50/121
s 3
f 68/177/25 65/174/22 83/192/124 84/193/129
s 12
f 12/69/127 13/70/130 52/55/131 50/53/128
s 3
f 70/179/27 68/177/25 84/193/129 85/194/132
s 12
f 13/70/130 14/218/133 54/221/134 52/55/131
s 3
f 72/181/29 70/179/27 85/194/132 86/195/135
s 13
f 14/71/136 15/72/137 56/59/138 54/57/139
s 4
f 74/183/32 72/181/31 86/195/140 87/196/141
s 13
f 15/72/137 16/73/142 58/61/143 56/59/138
s 4
f 76/185/35 74/183/32 87/196/141 88/197/144
s 13
f 16/73/142 17/74/145 60/63/146 58/61/143
s 4
f 78/187/37 76/185/35 88/197/144 89/198/147
s 13
f 17/74/145 18/75/148 62/65/149 60/63/146
s 9
f 112/136/83 114/152/117 115/156/150 116/157/151
s 4
f 80/189/39 78/187/37 89/198/147 90/199/152
s 5
f 37/142/93 38/141/92 67/158/153 66/159/154
s 10
f 127/144/95 126/143/94 130/160/155 131/161/156
s 5
f 39/145/98 37/142/93 66/159/154 69/162/157
f 40/146/101 39/145/98 69/162/157 71/163/158
f 41/147/104 40/146/101 71/163/158 73/164/159
f 42/148/107 41/147/104 73/164/159 75/165/160
f 43/149/110 42/148/107 75/165/160 77/166/161
f 44/150/113 43/149/110 77/166/161 79/167/162
s 9
f 114/152/117 113/151/116 117/168/163 118/169/164
s 5
f 45/153/118 44/150/113 79/167/162 81/170/165
s 10
f 126/143/94 129/155/126 132/171/166 130/160/155
s 14
f 91/23/167 92/24/168 93/25/169 94/26/170
f 92/24/168 95/27/171 96/28/172 93/25/169
f 95/27/171 97/29/173 98/30/174 96/28/172
f 97/29/173 99/31/175 100/32/176 98/30/174
f 99/31/175 101/33/177 102/34/178 100/32/176
f 101/33/177 103/35/179 104/36/180 102/34/178
f 103/35/179 105/37/181 106/38/182 104/36/180
f 105/37/181 107/39/183 108/40/184 106/38/182
s 9
f 115/156/150 114/152/117 118/169/164 119/172/185
s 15
f 49/1/186 48/2/187 92/3/188 91/4/189
s 3
f 83/192/124 82/191/123 94/200/190 93/201/191
s 10
f 132/41/166 129/42/126 133/43/192 134/44/193
s 15
f 48/2/187 51/5/194 95/6/195 92/3/188
s 3
f 84/193/129 83/192/124 93/201/191 96/202/196
s 15
f 51/5/194 53/7/197 97/8/198 95/6/195
s 3
f 85/194/132 84/193/129 96/202/196 98/203/199
s 15
f 53/7/197 55/9/200 99/10/201 97/8/198
s 3
f 86/195/135 85/194/132 98/203/199 100/204/202
s 16
f 55/9/203 57/11/204 101/12/205 99/10/206
s 4
f 87/196/141 86/195/140 100/204/207 102/205/208
s 16
f 57/11/204 59/13/209 103/14/210 101/12/205
s 4
f 88/197/144 87/196/141 102/205/208 104/206/211
s 16
f 59/13/209 61/15/212 105/16/213 103/14/210
s 4
f 89/198/147 88/197/144 104/206/211 106/207/214
s 16
f 61/15/212 63/17/215 107/18/216 105/16/213
s 9
f 115/45/150 119/46/185 120/47/217 121/48/218
s 4
f 90/199/152 89/198/147 106/207/214 108/208/219
s 8
f 9/98/79 36/108/78 109/109/220 110/110/221
s 5
f 36/132/59 27/131/58 111/135/222 109/134/223
s 2
f 18/99/20 9/98/19 110/110/224 112/111/225
s 5
f 27/131/58 45/153/118 113/151/226 111/135/222
s 11
f 63/66/115 62/65/114 116/76/227 115/77/228
s 13
f 62/65/149 18/75/148 112/78/229 116/76/230
s 5
f 45/153/118 81/170/165 117/168/231 113/151/226
s 4
f 81/190/40 80/189/39 118/209/232 117/210/233
f 80/189/39 90/199/152 119/211/234 118/209/232
f 90/199/152 108/208/219 120/212/235 119/211/234
s 14
f 108/40/184 107/39/183 121/48/236 120/47/237
s 16
f 107/18/216 63/17/215 115/19/238 121/20/239
s 1
f 1/82/1 10/85/4 123/112/240 122/113/241
s 5
f 19/115/41 28/118/44 125/140/242 124/139/243
s 7
f 28/100/60 1/82/63 122/113/244 125/114/245
s 5
f 38/141/92 19/115/41 124/139/243 127/144/246
s 12
f 10/67/119 46/49/122 128/79/247 123/80/248
s 11
f 46/49/88 49/52/91 129/81/249 128/79/250
s 3
f 64/173/21 67/176/24 131/213/251 130/214/252
s 5
f 67/158/153 38/141/92 127/144/246 131/161/253
s 3
f 82/191/123 64/173/21 130/214/252 132/215/254
s 15
f 49/1/186 91/4/189 133/21/255 129/22/256
s 14
f 91/23/167 94/26/170 134/44/257 133/43/258
s 3
f 94/200/190 82/191/123 132/215/254 134/216/259
