# This file uses centimeters as units for non-parametric coordinates.

mtllib SmallPillar.mtl
g default
v -6.045237 -8.103947 -0.814957
v -6.834534 -8.103947 -1.152523
v -7.623831 -8.103947 -0.814957
v -7.997450 -8.103947 -0.000000
v -7.623831 -8.103947 0.814957
v -6.834534 -8.103947 1.152523
v -6.045237 -8.103947 0.814957
v -5.671617 -8.103947 -0.000000
v -6.045237 5.687023 -0.814957
v -6.834534 5.687023 -1.152523
v -7.623831 5.687023 -0.814957
v -7.997450 5.687023 -0.000000
v -7.623831 5.687023 0.814957
v -6.834534 5.687023 1.152523
v -6.045237 5.687023 0.814957
v -5.671617 5.687023 -0.000000
v -6.834534 -8.237633 -1.505526
v -7.900102 -8.237634 -1.064568
v -8.388156 -8.237634 -0.000000
v -7.900102 -8.237634 1.064568
v -6.834534 -8.237634 1.505526
v -5.768967 -8.237634 1.064568
v -5.280912 -8.237634 0.000000
v -5.768967 -8.237634 -1.064568
v -6.834534 -8.750593 -1.505526
v -7.900101 -8.750595 -1.064568
v -6.834534 -8.750595 -0.000000
v -8.388156 -8.750595 -0.000000
v -7.900102 -8.750595 1.064568
v -6.834534 -8.750595 1.505526
v -5.768967 -8.750595 1.064568
v -5.280912 -8.750595 -0.000000
v -5.768967 -8.750595 -1.064568
v -6.834534 5.687023 -1.611656
v -7.902591 5.687023 -1.139613
v -7.902589 6.274664 -1.139611
v -6.834534 6.274664 -1.611654
v -8.323660 5.687023 0.000000
v -8.323658 6.274664 0.000000
v -7.867811 5.687023 1.097058
v -7.867809 6.274664 1.097056
v -6.834534 5.687023 1.508919
v -6.834534 6.274664 1.508917
v -5.801258 5.687023 1.097058
v -5.801259 6.274664 1.097056
v -5.345408 5.687023 0.000000
v -5.345410 6.274664 0.000000
v -5.766478 5.687023 -1.139613
v -5.766479 6.274664 -1.139611
v -6.834534 6.274664 -1.757810
v -8.599990 6.274664 -1.757808
v -8.599990 6.274664 -0.000000
v -8.599990 6.274664 1.757809
v -6.834534 6.274664 1.757809
v -5.069078 6.274664 1.757809
v -5.069078 6.274664 0.000000
v -5.069078 6.274664 -1.757808
v -6.834534 6.891820 -1.534895
v -8.264978 6.891820 -1.534894
v -8.264978 6.891820 0.000000
v -8.264978 6.891820 1.534893
v -6.834534 6.891820 1.534895
v -5.404090 6.891820 1.534895
v -5.404090 6.891820 -0.000000
v -5.404090 6.891820 -1.534895
v -6.834534 6.891820 -1.757810
v -8.599990 6.891820 -1.757808
v -8.599990 6.891820 -0.000000
v -8.599990 6.891820 1.757809
v -6.834534 6.891820 1.757808
v -5.069078 6.891820 1.757809
v -5.069078 6.891820 -0.000000
v -5.069078 6.891820 -1.757810
v -6.834534 10.189099 -1.534889
v -8.264973 10.189099 -1.534886
v -8.264971 10.189099 0.000000
v -8.264971 10.189099 1.534887
v -6.834534 10.189099 1.534889
v -5.404097 10.189099 1.534889
v -5.404097 10.189099 -0.000000
v -5.404097 10.189099 -1.534890
v -6.834534 10.189101 -2.455429
v -8.810808 10.189099 -2.455426
v -8.810808 10.189101 0.000000
v -8.810808 10.189101 2.455431
v -6.834534 10.189101 2.455431
v -4.858260 10.189101 2.455434
v -4.858260 10.189101 -0.000000
v -4.858260 10.189101 -2.455433
v -6.834535 10.826077 -2.455430
v -8.810806 10.826076 -2.455426
v -8.810804 10.826077 -0.000001
v -8.810804 10.826077 2.455426
v -6.834534 10.826077 2.455428
v -4.858263 10.826077 2.455431
v -4.858263 10.826077 -0.000000
v -4.858263 10.826077 -2.455431
v -6.834535 10.826077 -3.320889
v -9.816650 10.826076 -3.320887
v -9.816649 10.826080 -0.000001
v -9.816649 10.826080 3.320888
v -6.834535 10.826080 3.320888
v -3.852419 10.826077 3.320891
v -3.852419 10.826077 0.000000
v -3.852419 10.826076 -3.320891
v -6.834535 12.421911 -3.320887
v -9.816651 12.421909 -3.320887
v -9.816647 12.421913 -0.000002
v -9.816647 12.421913 3.320882
v -6.834534 12.421913 3.320890
v -3.852417 12.421911 3.320888
v -3.852417 12.421911 -0.000000
v -3.852417 12.421909 -3.320888
v -6.834534 12.421909 -2.670606
v -9.096915 12.421909 -2.670607
v -9.096915 12.421911 -0.000002
v -9.096914 12.421913 2.670604
v -6.834534 12.421913 2.670608
v -4.572152 12.421911 2.670606
v -4.572152 12.421911 -0.000001
v -4.572152 12.421909 -2.670610
v -6.834534 12.945983 -2.670609
v -6.834534 12.945977 -0.000001
v -9.096914 12.945983 -2.670607
v -9.096914 12.945986 -0.000002
v -9.096914 12.945988 2.670604
v -6.834534 12.945988 2.670604
v -4.572152 12.945986 2.670608
v -4.572153 12.945986 -0.000002
v -4.572153 12.945983 -2.670606
vt 0.323006 0.327217
vt 0.295587 0.354510
vt 0.256916 0.353685
vt 0.227717 0.325692
vt 0.229524 0.285313
vt 0.256939 0.258004
vt 0.295613 0.258818
vt 0.324826 0.286817
vt 0.750416 0.644060
vt 0.711071 0.644060
vt 0.671726 0.644060
vt 0.952377 0.644060
vt 0.911287 0.644060
vt 0.871942 0.644060
vt 0.832596 0.644060
vt 0.791506 0.644060
vt 0.750416 0.011982
vt 0.711071 0.011982
vt 0.993467 0.011982
vt 0.952377 0.011982
vt 0.911287 0.011982
vt 0.871942 0.011982
vt 0.832596 0.011982
vt 0.791506 0.011982
vt 0.115027 0.257077
vt 0.142757 0.284043
vt 0.142372 0.322733
vt 0.115010 0.352510
vt 0.074614 0.350946
vt 0.047000 0.323906
vt 0.047288 0.285262
vt 0.074609 0.255515
vt 0.500984 0.261636
vt 0.248956 0.369896
vt 0.301959 0.370424
vt 0.210528 0.332563
vt 0.212578 0.279093
vt 0.250549 0.242099
vt 0.303565 0.242600
vt 0.342016 0.279953
vt 0.339948 0.333447
vt 0.437201 0.235227
vt 0.311034 0.391300
vt 0.435189 0.288864
vt 0.474515 0.325395
vt 0.527369 0.325395
vt 0.564768 0.288046
vt 0.566780 0.234408
vt 0.527454 0.197878
vt 0.504495 0.041530
vt 0.026417 0.041528
vt 0.096765 0.041528
vt 0.167114 0.041528
vt 0.232675 0.041528
vt 0.298236 0.041528
vt 0.368585 0.041529
vt 0.438933 0.041530
vt 0.027974 0.331801
vt 0.065776 0.368109
vt 0.590309 0.661507
vt 0.098415 0.661457
vt 0.120705 0.366196
vt 0.508374 0.661507
vt 0.158296 0.327902
vt 0.437514 0.661290
vt 0.157616 0.277857
vt 0.371894 0.661165
vt 0.122580 0.242127
vt 0.304529 0.661064
vt 0.068882 0.241845
vt 0.234621 0.660987
vt 0.028901 0.279449
vt 0.163506 0.661457
vt 0.098415 0.633697
vt 0.590309 0.633697
vt 0.508596 0.633697
vt 0.437892 0.633697
vt 0.372049 0.633697
vt 0.304825 0.633697
vt 0.235276 0.633697
vt 0.163506 0.633697
vt 0.098415 0.605027
vt 0.590309 0.605027
vt 0.508596 0.605027
vt 0.437892 0.605027
vt 0.372049 0.605027
vt 0.304825 0.605027
vt 0.235276 0.605027
vt 0.163506 0.605027
vt 0.626019 0.458839
vt 0.002587 0.981541
vt 0.148249 0.981541
vt 0.282358 0.981541
vt 0.392524 0.981541
vt 0.500533 0.981541
vt 0.851713 0.699568
vt 0.105275 0.699568
vt 0.002587 0.699568
vt 0.879180 0.699568
vt 0.237499 0.699568
vt 0.148249 0.699568
vt 0.282358 0.699568
vt 0.282358 0.699568
vt 0.392524 0.699568
vt 0.392524 0.699568
vt 0.500533 0.699568
vt 0.500533 0.699568
vt 0.626131 0.699568
vt 0.626131 0.699568
vt 0.713338 0.699568
vt 0.768612 0.699568
vt 0.002587 0.740236
vt 0.879180 0.740236
vt 0.148249 0.740236
vt 0.282358 0.740236
vt 0.392524 0.740236
vt 0.500533 0.740236
vt 0.626131 0.740236
vt 0.768612 0.740236
vt 0.002587 0.797462
vt 0.879180 0.797462
vt 0.148249 0.797462
vt 0.282358 0.797462
vt 0.392524 0.797462
vt 0.500533 0.797462
vt 0.626131 0.797462
vt 0.768612 0.797462
vt 0.002587 0.875492
vt 0.879180 0.875492
vt 0.148249 0.875492
vt 0.282358 0.875492
vt 0.392524 0.875492
vt 0.500533 0.875492
vt 0.626131 0.875492
vt 0.768612 0.875492
vt 0.002587 0.919637
vt 0.879180 0.919637
vt 0.148249 0.919637
vt 0.282358 0.919637
vt 0.392524 0.919637
vt 0.500533 0.919637
vt 0.626131 0.919637
vt 0.768612 0.919637
vt 0.241442 0.221238
vt 0.191407 0.270376
vt 0.189805 0.341684
vt 0.240909 0.391254
vt 0.474599 0.197878
vt 0.361108 0.342188
vt 0.311597 0.221238
vt 0.362741 0.270844
vt 0.004769 0.269828
vt 0.004557 0.342654
vt 0.058470 0.217874
vt 0.131693 0.217874
vt 0.181151 0.267019
vt 0.182628 0.336703
vt 0.132000 0.389732
vt 0.057412 0.392650
vt 0.438932 0.192653
vt 0.368584 0.192652
vt 0.298236 0.192652
vt 0.232675 0.192652
vt 0.167114 0.192651
vt 0.096765 0.192651
vt 0.163506 0.591959
vt 0.098415 0.591959
vt 0.235276 0.591959
vt 0.304825 0.591959
vt 0.372049 0.591959
vt 0.437892 0.591959
vt 0.508596 0.591959
vt 0.590309 0.591959
vt 0.016142 0.661457
vt 0.016142 0.633697
vt 0.626019 0.562530
vt 0.503618 0.562530
vt 0.381216 0.562530
vt 0.381216 0.458839
vt 0.768612 0.981541
vt 0.503617 0.458839
vt 0.626131 0.981541
vt 0.879180 0.981986
vt 0.503617 0.355147
vt 0.626019 0.355147
vt 0.381216 0.355147
vt 0.504493 0.192654
vt 0.026417 0.192651
vt 0.955335 0.699568
vt 0.998317 0.699568
vt 0.998317 0.740236
vt 0.998317 0.919637
vt 0.998317 0.981986
vt 0.998317 0.875492
vt 0.998317 0.797462
vt 0.570056 0.041531
vt 0.570054 0.192654
vt 0.016142 0.591959
vt 0.016142 0.605027
vt 0.993467 0.644061
vt 0.671726 0.011982
vn 0.703925 0.000000 -0.710274
vn 0.000000 0.000000 -1.000000
vn 0.000000 -0.048497 -0.998823
vn 0.703289 -0.042527 -0.709631
vn -0.703926 0.000000 -0.710274
vn -0.703289 -0.042527 -0.709631
vn -1.000000 0.000000 0.000000
vn -0.999234 -0.039133 0.000000
vn -0.703926 0.000000 0.710274
vn -0.703457 -0.036472 0.709801
vn 0.000000 0.000000 1.000000
vn 0.000000 -0.038854 0.999245
vn 0.703925 0.000000 0.710274
vn 0.703457 -0.036472 0.709801
vn 1.000000 0.000000 0.000000
vn 0.999234 -0.039133 0.000000
vn 0.000001 -1.000000 -0.000001
vn -0.000000 -1.000000 -0.000001
vn -0.000000 -1.000000 -0.000000
vn 0.000000 -1.000000 -0.000000
vn 0.000000 -1.000000 0.000001
vn 0.000000 -1.000000 0.000001
vn 0.000000 -1.000000 0.000001
vn -0.000000 -1.000000 -0.000000
vn -0.000001 -1.000000 -0.000001
vn 0.000000 1.000000 -0.000001
vn 0.000000 1.000000 0.000001
vn 0.000002 1.000000 0.000001
vn 0.000002 1.000000 -0.000001
vn 0.000002 1.000000 -0.000003
vn 0.000000 1.000000 -0.000002
vn -0.000002 1.000000 -0.000002
vn -0.000002 1.000000 -0.000001
vn -0.000002 1.000000 0.000001
vn -0.235746 0.939950 -0.246817
vn 0.000000 0.937223 -0.348729
vn 0.000000 0.370085 -0.928998
vn -0.644824 0.384953 -0.660313
vn -0.323741 0.946146 0.000000
vn -0.919953 0.392029 0.000000
vn -0.235746 0.939949 0.246818
vn -0.644824 0.384953 0.660313
vn -0.000000 0.937223 0.348732
vn -0.000000 0.370084 0.928998
vn 0.235746 0.939949 0.246819
vn 0.644824 0.384953 0.660313
vn 0.323741 0.946146 0.000000
vn 0.919953 0.392029 -0.000000
vn 0.235746 0.939950 -0.246817
vn 0.644824 0.384953 -0.660313
vn 0.000000 0.000000 -1.000000
vn -0.695904 0.000000 -0.718135
vn -1.000000 -0.000000 -0.000000
vn -0.695904 0.000000 0.718135
vn -0.000000 0.000000 1.000000
vn 0.695904 0.000000 0.718135
vn 1.000000 -0.000000 -0.000000
vn 0.695904 0.000000 -0.718135
vn -0.000000 -0.441692 -0.897167
vn -0.668732 -0.413532 -0.617890
vn -0.734476 0.000004 -0.678635
vn -0.000000 0.000004 -1.000000
vn -0.928068 -0.372131 0.014431
vn -0.999879 0.000004 0.015548
vn -0.660840 -0.371434 0.652171
vn -0.711760 0.000003 0.702423
vn 0.000000 -0.387655 0.921805
vn 0.000000 0.000003 1.000000
vn 0.660840 -0.371434 0.652171
vn 0.711760 0.000003 0.702423
vn 0.928068 -0.372131 0.014431
vn 0.999879 0.000004 0.015548
vn 0.668732 -0.413532 -0.617890
vn 0.734476 0.000004 -0.678635
vn 0.000000 1.000000 0.000000
vn 0.000000 1.000000 0.000000
vn 0.000000 1.000000 0.000000
vn 0.000000 1.000000 0.000000
vn 0.000000 1.000000 0.000000
vn 0.000000 1.000000 0.000000
vn 0.000000 1.000000 0.000000
vn 0.000000 1.000000 0.000000
vn 0.000000 1.000000 0.000000
vn 0.000000 1.000000 0.000000
vn 0.000000 1.000000 0.000000
vn 0.000000 1.000000 0.000000
vn 0.000000 1.000000 0.000000
vn 0.000000 1.000000 0.000000
vn 0.000000 1.000000 0.000000
vn 0.000000 1.000000 0.000000
vn 0.000000 -1.000000 0.000002
vn 0.000000 -1.000000 0.000002
vn 0.000000 -1.000000 0.000002
vn 0.000000 -1.000000 0.000002
vn 0.000000 -1.000000 0.000000
vn 0.000000 -1.000000 0.000000
vn 0.000000 -1.000000 0.000000
vn 0.000000 -1.000000 0.000000
vn 0.000000 -1.000000 0.000000
vn 0.000000 -1.000000 0.000000
vn 0.000000 -1.000000 0.000000
vn 0.000000 -1.000000 0.000000
vn 0.000000 -1.000000 -0.000001
vn 0.000000 -1.000000 -0.000001
vn 0.000000 -1.000000 -0.000001
vn 0.000000 -1.000000 -0.000001
vn 0.000000 -1.000000 -0.000001
vn 0.000000 -1.000000 -0.000001
vn 0.000000 -1.000000 -0.000001
vn 0.000000 -1.000000 -0.000001
vn 0.000000 -1.000000 0.000000
vn 0.000000 -1.000000 0.000000
vn 0.000000 -1.000000 0.000000
vn 0.000000 -1.000000 0.000000
vn 0.000000 -1.000000 -0.000000
vn 0.000000 -1.000000 -0.000000
vn 0.000000 -1.000000 -0.000000
vn 0.000000 -1.000000 -0.000000
vn 0.000000 -1.000000 0.000001
vn 0.000000 -1.000000 0.000001
vn 0.000000 -1.000000 0.000001
vn 0.000000 -1.000000 0.000001
vn -0.000001 0.000000 -1.000000
vn -0.000001 0.000000 -1.000000
vn -0.000001 0.000000 -1.000000
vn -0.000001 0.000000 -1.000000
vn -1.000000 0.000000 0.000000
vn -1.000000 0.000000 0.000000
vn -1.000000 0.000000 0.000000
vn -1.000000 0.000000 0.000000
vn -1.000000 -0.000000 0.000000
vn -1.000000 -0.000000 0.000000
vn -1.000000 -0.000000 0.000000
vn -1.000000 -0.000000 0.000000
vn 0.000000 0.000001 1.000000
vn 0.000000 0.000001 1.000000
vn 0.000000 0.000001 1.000000
vn 0.000000 0.000001 1.000000
vn -0.000000 0.000001 1.000000
vn -0.000000 0.000001 1.000000
vn -0.000000 0.000001 1.000000
vn -0.000000 0.000001 1.000000
vn 1.000000 -0.000000 0.000000
vn 1.000000 -0.000000 0.000000
vn 1.000000 -0.000000 0.000000
vn 1.000000 -0.000000 0.000000
vn 1.000000 0.000000 0.000000
vn 1.000000 0.000000 0.000000
vn 1.000000 0.000000 0.000000
vn 1.000000 0.000000 0.000000
vn 0.000000 -0.000002 -1.000000
vn 0.000000 -0.000002 -1.000000
vn 0.000000 -0.000002 -1.000000
vn 0.000000 -0.000002 -1.000000
vn -0.000001 0.000002 -1.000000
vn -0.000002 0.000002 -1.000000
vn -0.000002 0.000002 -1.000000
vn -0.000001 0.000002 -1.000000
vn -1.000000 0.000002 0.000001
vn -1.000000 0.000002 0.000000
vn -1.000000 0.000002 0.000000
vn -1.000000 0.000002 0.000001
vn -1.000000 0.000002 0.000000
vn -1.000000 0.000002 0.000000
vn -0.000001 0.000002 1.000000
vn -0.000001 0.000002 1.000000
vn -0.000001 0.000002 1.000000
vn -0.000001 0.000002 1.000000
vn -0.000000 0.000002 1.000000
vn -0.000000 0.000002 1.000000
vn 1.000000 0.000002 0.000000
vn 1.000000 0.000002 0.000000
vn 1.000000 0.000002 0.000000
vn 1.000000 0.000002 0.000000
vn 1.000000 0.000002 0.000000
vn 1.000000 0.000002 0.000000
vn -0.000000 0.000002 -1.000000
vn -0.000000 0.000002 -1.000000
vn 0.000000 -1.000000 -0.000001
vn -0.000001 -1.000000 0.000000
vn -0.000000 -1.000000 0.000000
vn 0.000000 -1.000000 -0.000001
vn -0.000003 -1.000000 0.000000
vn -0.000003 -1.000000 0.000000
vn -0.000002 -1.000000 0.000001
vn -0.000001 -1.000000 0.000001
vn -0.000000 -1.000000 0.000002
vn -0.000000 -1.000000 0.000002
vn 0.000002 -1.000000 0.000001
vn 0.000001 -1.000000 0.000001
vn 0.000003 -1.000000 0.000000
vn 0.000003 -1.000000 0.000000
vn 0.000002 -1.000000 -0.000001
vn 0.000001 -1.000000 -0.000001
vn -0.000002 -0.000000 -1.000000
vn -0.000002 -0.000001 -1.000000
vn -0.000002 -0.000001 -1.000000
vn -0.000002 -0.000000 -1.000000
vn -1.000000 0.000004 0.000000
vn -1.000000 0.000005 0.000000
vn -1.000000 0.000005 0.000000
vn -1.000000 0.000004 0.000000
vn -1.000000 0.000006 0.000000
vn -1.000000 0.000006 0.000000
vn -0.000001 0.000006 1.000000
vn -0.000001 0.000005 1.000000
vn -0.000001 0.000005 1.000000
vn -0.000001 0.000006 1.000000
vn -0.000001 0.000004 1.000000
vn -0.000001 0.000004 1.000000
vn 1.000000 0.000005 0.000000
vn 1.000000 0.000005 0.000000
vn 1.000000 0.000005 0.000000
vn 1.000000 0.000005 0.000000
vn 1.000000 0.000005 0.000000
vn 1.000000 0.000005 0.000000
vn -0.000002 0.000000 -1.000000
vn -0.000002 0.000000 -1.000000
vn 0.000000 -1.000000 0.000001
vn -0.000001 -1.000000 0.000001
vn -0.000001 -1.000000 0.000001
vn 0.000000 -1.000000 0.000001
vn -0.000002 -1.000000 0.000000
vn -0.000002 -1.000000 0.000000
vn -0.000002 -1.000000 0.000002
vn -0.000002 -1.000000 0.000002
vn -0.000000 -1.000000 0.000003
vn -0.000000 -1.000000 0.000003
vn -0.000000 -1.000000 0.000001
vn -0.000000 -1.000000 0.000000
vn -0.000000 -1.000000 0.000000
vn -0.000000 -1.000000 0.000000
vn -0.000000 -1.000000 0.000001
vn -0.000000 -1.000000 0.000001
vn -0.000000 0.000001 -1.000000
vn -0.000001 0.000001 -1.000000
vn -0.000001 0.000001 -1.000000
vn -0.000000 0.000001 -1.000000
vn -1.000000 0.000001 0.000001
vn -1.000000 0.000001 0.000000
vn -1.000000 0.000001 0.000000
vn -1.000000 0.000001 0.000001
vn -1.000000 0.000002 0.000000
vn -1.000000 0.000002 0.000000
vn -0.000001 0.000001 1.000000
vn -0.000001 0.000001 1.000000
vn -0.000001 0.000001 1.000000
vn -0.000001 0.000001 1.000000
vn -0.000000 0.000000 1.000000
vn -0.000000 0.000000 1.000000
vn 1.000000 -0.000001 0.000000
vn 1.000000 -0.000001 0.000000
vn 1.000000 -0.000001 0.000000
vn 1.000000 -0.000001 0.000000
vn 1.000000 -0.000001 0.000000
vn 1.000000 -0.000001 0.000000
vn -0.000000 0.000002 -1.000000
vn -0.000000 0.000002 -1.000000
vn 0.000000 1.000000 0.000001
vn 0.000001 1.000000 0.000000
vn 0.000001 1.000000 0.000001
vn 0.000000 1.000000 0.000001
vn 0.000001 1.000000 -0.000001
vn 0.000001 1.000000 -0.000001
vn 0.000001 1.000000 -0.000001
vn 0.000001 1.000000 -0.000001
vn 0.000000 1.000000 -0.000001
vn 0.000000 1.000000 -0.000001
vn 0.000000 1.000000 -0.000000
vn 0.000000 1.000000 -0.000000
vn -0.000000 1.000000 -0.000000
vn -0.000000 1.000000 -0.000000
vn -0.000000 1.000000 -0.000000
vn 0.000000 1.000000 0.000000
vn -0.000000 -0.000001 -1.000000
vn -0.000001 -0.000003 -1.000000
vn -0.000001 -0.000003 -1.000000
vn -0.000000 -0.000001 -1.000000
vn -1.000000 0.000001 -0.000000
vn -1.000000 0.000001 0.000000
vn -1.000000 0.000001 0.000000
vn -1.000000 0.000001 -0.000000
vn -1.000000 0.000001 0.000000
vn -1.000000 0.000001 0.000000
vn -0.000001 0.000003 1.000000
vn -0.000001 0.000003 1.000000
vn -0.000001 0.000003 1.000000
vn -0.000001 0.000003 1.000000
vn -0.000001 0.000003 1.000000
vn -0.000001 0.000003 1.000000
vn 1.000000 0.000002 -0.000000
vn 1.000000 0.000002 -0.000000
vn 1.000000 0.000002 -0.000000
vn 1.000000 0.000002 -0.000000
vn 1.000000 0.000003 -0.000000
vn 1.000000 0.000003 -0.000000
vn -0.000000 0.000001 -1.000000
vn -0.000000 0.000001 -1.000000
s 1
g SmallPillar:pCylinder1
usemtl initialShadingGroup
f 1/9/1 2/10/2 10/18/3 9/17/4
f 2/10/2 3/11/5 11/201/6 10/18/3
f 3/200/5 4/12/7 12/20/8 11/19/6
f 4/12/7 5/13/9 13/21/10 12/20/8
f 5/13/9 6/14/11 14/22/12 13/21/10
f 6/14/11 7/15/13 15/23/14 14/22/12
f 7/15/13 8/16/15 16/24/16 15/23/14
f 8/16/15 1/9/1 9/17/4 16/24/16
s 2
f 26/42/17 25/148/18 27/33/19 28/44/20
f 29/45/21 28/44/20 27/33/19 30/46/22
f 31/47/23 30/46/22 27/33/19 32/48/24
f 33/49/25 32/48/24 27/33/19 25/148/18
s 3
f 123/181/26 122/90/27 124/176/28 125/177/29
f 123/181/26 125/177/29 126/178/30 127/179/31
f 123/181/26 127/179/31 128/186/32 129/184/33
f 123/181/26 129/184/33 130/185/34 122/90/27
s 4
f 3/3/35 2/2/36 17/35/37 18/34/38
f 4/4/39 3/3/35 18/34/38 19/36/40
f 5/5/41 4/4/39 19/36/40 20/37/42
f 6/6/43 5/5/41 20/37/42 21/38/44
f 7/7/45 6/6/43 21/38/44 22/39/46
f 8/8/47 7/7/45 22/39/46 23/40/48
f 1/1/49 8/8/47 23/40/48 24/41/50
f 2/2/36 1/1/49 24/41/50 17/35/37
f 18/34/38 17/35/37 25/43/51 26/147/52
f 19/36/40 18/34/38 26/147/52 28/146/53
f 20/37/42 19/36/40 28/146/53 29/145/54
f 21/38/44 20/37/42 29/145/54 30/144/55
f 22/39/46 21/38/44 30/144/55 31/150/56
f 23/40/48 22/39/46 31/150/56 32/151/57
f 24/41/50 23/40/48 32/151/57 33/149/58
f 17/35/37 24/41/50 33/149/58 25/43/51
s 1
f 34/58/59 35/59/60 36/159/61 37/153/62
f 35/59/60 38/62/63 39/158/64 36/159/61
f 38/62/63 40/64/65 41/157/66 39/158/64
f 40/64/65 42/66/67 43/156/68 41/157/66
f 42/66/67 44/68/69 45/155/70 43/156/68
f 44/68/69 46/70/71 47/154/72 45/155/70
f 46/70/71 48/72/73 49/152/74 47/154/72
f 48/72/73 34/58/59 37/153/62 49/152/74
f 10/30/3 11/29/6 35/59/60 34/58/59
s 5
f 59/198/75 58/167/76 66/82/77 67/199/78
s 1
f 11/29/6 12/28/8 38/62/63 35/59/60
s 5
f 60/172/79 59/173/75 67/83/78 68/84/80
s 1
f 12/28/8 13/27/10 40/64/65 38/62/63
s 5
f 61/171/81 60/172/79 68/84/80 69/85/82
s 1
f 13/27/10 14/26/12 42/66/67 40/64/65
s 5
f 62/170/83 61/171/81 69/85/82 70/86/84
s 1
f 14/26/12 15/25/14 44/68/69 42/66/67
s 5
f 63/169/85 62/170/83 70/86/84 71/87/86
s 1
f 15/25/14 16/32/16 46/70/71 44/68/69
s 5
f 64/168/87 63/169/85 71/87/86 72/88/88
s 1
f 16/32/16 9/31/4 48/72/73 46/70/71
s 5
f 65/166/89 64/168/87 72/88/88 73/89/90
s 1
f 9/31/4 10/30/3 34/58/59 48/72/73
s 5
f 58/167/76 65/166/89 73/89/90 66/82/77
s off
f 37/61/91 36/174/92 51/175/93 50/74/94
f 36/60/95 39/63/96 52/76/97 51/75/98
f 39/63/99 41/65/100 53/77/101 52/76/102
f 41/65/103 43/67/104 54/78/105 53/77/106
f 43/67/107 45/69/108 55/79/109 54/78/110
f 45/69/111 47/71/112 56/80/113 55/79/114
f 47/71/115 49/73/116 57/81/117 56/80/118
f 49/73/119 37/61/120 50/74/121 57/81/122
f 50/74/123 51/175/124 67/199/125 66/82/126
f 51/75/127 52/76/128 68/84/129 67/83/130
f 52/76/131 53/77/132 69/85/133 68/84/134
f 53/77/135 54/78/136 70/86/137 69/85/138
f 54/78/139 55/79/140 71/87/141 70/86/142
f 55/79/143 56/80/144 72/88/145 71/87/146
f 56/80/147 57/81/148 73/89/149 72/88/150
f 57/81/151 50/74/152 66/82/153 73/89/154
s 6
f 58/50/155 59/196/156 75/197/157 74/187/158
s 7
f 59/51/159 60/52/160 76/165/161 75/188/162
f 60/52/160 61/53/163 77/164/164 76/165/161
s 8
f 61/53/165 62/54/166 78/163/167 77/164/168
f 62/54/166 63/55/169 79/162/170 78/163/167
s 9
f 63/55/171 64/56/172 80/161/173 79/162/174
f 64/56/172 65/57/175 81/160/176 80/161/173
s 6
f 65/57/177 58/50/155 74/187/158 81/160/178
s 10
f 74/96/179 75/189/180 83/190/181 82/99/182
f 75/97/180 76/100/183 84/101/184 83/98/181
f 76/100/183 77/102/185 85/103/186 84/101/184
f 77/102/185 78/104/187 86/105/188 85/103/186
f 78/104/187 79/106/189 87/107/190 86/105/188
f 79/106/189 80/108/191 88/109/192 87/107/190
f 80/108/191 81/110/193 89/111/194 88/109/192
f 81/110/193 74/96/179 82/99/182 89/111/194
s 11
f 82/99/195 83/190/196 91/191/197 90/113/198
s 12
f 83/98/199 84/101/200 92/114/201 91/112/202
f 84/101/200 85/103/203 93/115/204 92/114/201
s 13
f 85/103/205 86/105/206 94/116/207 93/115/208
f 86/105/206 87/107/209 95/117/210 94/116/207
s 14
f 87/107/211 88/109/212 96/118/213 95/117/214
f 88/109/212 89/111/215 97/119/216 96/118/213
s 11
f 89/111/217 82/99/195 90/113/198 97/119/218
s 15
f 90/113/219 91/191/220 99/195/221 98/121/222
f 91/112/220 92/114/223 100/122/224 99/120/221
f 92/114/223 93/115/225 101/123/226 100/122/224
f 93/115/225 94/116/227 102/124/228 101/123/226
f 94/116/227 95/117/229 103/125/230 102/124/228
f 95/117/229 96/118/231 104/126/232 103/125/230
f 96/118/231 97/119/233 105/127/234 104/126/232
f 97/119/233 90/113/219 98/121/222 105/127/234
s 16
f 98/121/235 99/195/236 107/194/237 106/129/238
s 17
f 99/120/239 100/122/240 108/130/241 107/128/242
f 100/122/240 101/123/243 109/131/244 108/130/241
s 18
f 101/123/245 102/124/246 110/132/247 109/131/248
f 102/124/246 103/125/249 111/133/250 110/132/247
s 19
f 103/125/251 104/126/252 112/134/253 111/133/254
f 104/126/252 105/127/255 113/135/256 112/134/253
s 16
f 105/127/257 98/121/235 106/129/238 113/135/258
s 20
f 106/129/259 107/194/260 115/192/261 114/137/262
f 107/128/260 108/130/263 116/138/264 115/136/261
f 108/130/263 109/131/265 117/139/266 116/138/264
f 109/131/265 110/132/267 118/140/268 117/139/266
f 110/132/267 111/133/269 119/141/270 118/140/268
f 111/133/269 112/134/271 120/142/272 119/141/270
f 112/134/271 113/135/273 121/143/274 120/142/272
f 113/135/273 106/129/259 114/137/262 121/143/274
s 21
f 114/137/275 115/192/276 124/193/277 122/183/278
s 22
f 115/136/279 116/138/280 125/92/281 124/91/282
f 116/138/280 117/139/283 126/93/284 125/92/281
s 23
f 117/139/285 118/140/286 127/94/287 126/93/288
f 118/140/286 119/141/289 128/95/290 127/94/287
s 24
f 119/141/291 120/142/292 129/182/293 128/95/294
f 120/142/292 121/143/295 130/180/296 129/182/293
s 21
f 121/143/297 114/137/275 122/183/278 130/180/298
